<svg width="120" height="120" viewBox="0 0 120 120" fill="none" xmlns="http://www.w3.org/2000/svg">
  <!-- Background Circle -->
  <circle cx="60" cy="60" r="55" fill="#0F172A"/>

  <!-- Gear (Processing) -->
  <g stroke="#38BDF8" stroke-width="3" stroke-linecap="round">
    <circle cx="60" cy="60" r="18"/>
    <path d="M60 28 V36"/>
    <path d="M60 84 V92"/>
    <path d="M28 60 H36"/>
    <path d="M84 60 H92"/>
    <path d="M40 40 L45 45"/>
    <path d="M75 75 L80 80"/>
    <path d="M40 80 L45 75"/>
    <path d="M75 45 L80 40"/>
  </g>

  <!-- AI Nodes -->
  <circle cx="60" cy="60" r="5" fill="#22C55E"/>
  <circle cx="45" cy="60" r="3" fill="#22C55E"/>
  <circle cx="75" cy="60" r="3" fill="#22C55E"/>
  <circle cx="60" cy="45" r="3" fill="#22C55E"/>
  <circle cx="60" cy="75" r="3" fill="#22C55E"/>

  <!-- Flow Arrows -->
  <path d="M20 60 C20 30, 100 30, 100 60" stroke="#A78BFA" stroke-width="2" fill="none"/>
  <polygon points="100,60 95,55 95,65" fill="#A78BFA"/>
</svg>
